# xmcd
#
# Track frame offsets:
#	150
#	9870
#	21395
#	33000
#	45512
#	54322
#	64815
#	75125
#	84685
#	96000
#
# Disc length: 1418 seconds
#
# Revision: 1
# Processed by: cddbd v1.5.2PL0 Copyright (c) Steve Scherf et al.
# Submitted via: audiograbber 1.83.01
#
DISCID=6305880a
DTITLE=Duos - Best of the Best of
DYEAR=1997
DGENRE=Duo Harmony
TTITLE0=Louvin Bros.- 01 - I Don't Believe You've Met my Baby
TTITLE1=Johhnie and Jack - 02 - Cryin' Heart Blues
TTITLE2=York Bros.- 03 - River of Tears
TTITLE3=Louvin Bros.- 04 - My Baby's Gone
TTITLE4=Johnnie and Jack - 05 - Oh Baby Mine
TTITLE5=Johnnie and Jack - 06- Poison Love
TTITLE6=Louvin Bros.- You're Running Wild
TTITLE7=Johnnie and Jack - 08 - Stop the World and Let Me Off
TTITLE8=Louvin Bros.- 09 - When I Stop Dreaming
TTITLE9=York Bross.- 10 - Kentucky
EXTD=
EXTT0=
EXTT1=
EXTT2=
EXTT3=
EXTT4=
EXTT5=
EXTT6=
EXTT7=
EXTT8=
EXTT9=
PLAYORDER=
